<?xml version="1.0" encoding="UTF-8" standalone="no"?>
<!DOCTYPE svg PUBLIC "-//W3C//DTD SVG 1.1//EN" "http://www.w3.org/Graphics/SVG/1.1/DTD/svg11.dtd">
<svg width="100%" height="100%" viewBox="0 0 512 512" version="1.1" xmlns="http://www.w3.org/2000/svg" xmlns:xlink="http://www.w3.org/1999/xlink" xml:space="preserve" xmlns:serif="http://www.serif.com/" style="fill-rule:evenodd;clip-rule:evenodd;stroke-linejoin:round;stroke-miterlimit:2;">
    <g transform="matrix(-1.0282,0,0,1.13842,693.778,-14.3686)">
        <g id="Notification">
            <path d="M355.13,372.003C349.471,385.838 307.753,414.898 235.704,431.173C220.008,434.718 209.183,431.075 204.357,431.304C199.531,431.534 197.36,445.001 205.249,450.453C213.817,456.374 231.779,458.023 275.327,447.908C322.136,437.036 353.238,414.354 423.794,420.329C494.35,426.305 523.006,411.969 586.495,357.961L585.985,359.517C584.291,368.877 583.149,382.081 591.379,401.627C595.976,412.544 582.473,426.046 565.811,434.665C549.149,443.283 555.756,453.051 560.353,453.912C564.949,454.774 583.91,455.061 588.219,454.2C592.528,453.338 592.528,455.061 597.125,449.316C601.721,443.57 624.991,413.693 630.449,399.042C635.908,384.39 658.763,294.229 665.21,271.202C671.243,249.656 656.305,199.669 652.283,193.636C648.261,187.603 664.833,-33.711 451.167,32.723L450.667,32.887C427.398,40.069 415.276,71.829 451.473,59.188C639.662,-6.528 614.074,174.101 613.787,176.399C613.5,178.697 612.638,183.006 609.478,183.868C558.523,197.765 526.166,207.138 514.962,244.484C503.758,281.831 479.052,299.642 462.965,316.305C446.877,332.967 436.535,326.934 430.789,324.923C425.043,322.912 414.673,318.846 407.491,319.133L407.28,318.022C420.639,295.786 421.905,284.167 380.81,303.718L380.499,303.821C362.688,267.91 369.721,288.59 363.4,299.219L362.986,299.794C354.085,298.349 341.944,300.026 334.379,307.882C324.818,317.811 315.035,321.246 308.454,322.407C305.329,322.959 306.248,325.717 306.432,326.268C306.616,326.82 307.283,338.619 312.683,343.735C316.176,347.045 311.905,349.719 318.75,352.744C326.656,356.238 356.526,361.834 355.203,371.542L355.13,372.003Z" style="fill:white;"/>
            <path d="M582.381,364.985C581.428,374.133 581.942,385.905 588.955,402.45C592.778,411.471 581.607,423.864 564.632,432.821C549.247,440.94 552.135,449.9 555.522,453.398C557.947,455.902 560.343,456.021 562.855,456.225C568.324,456.669 583.499,457.014 588.842,456.004C592.276,455.354 593.566,456.414 597.192,452.295C599.335,449.862 626.178,415.695 632.122,399.551C637.494,384.96 658.727,299.4 666.393,271.469C672.397,249.595 657.492,200.025 653.121,193.193C652.305,191.918 652.384,174.736 649.702,153.594C642.321,95.419 612.253,-17.191 452.134,31.585C449.802,32.295 441.616,34.407 434.124,42.338C423.677,53.394 424.419,67.358 446.259,61.815C451.962,60.368 460.131,56.905 475.899,52.831C561.828,30.631 595.466,66.644 607.274,108.803C616.39,141.353 611.709,175.255 611.064,177.968C610.909,178.622 610.224,181.345 608.753,181.74C558.396,195.271 524.036,204.337 511.816,243.708C500.544,280.026 477.312,296.398 459.996,313.953C445.926,328.217 438.349,323.578 432.633,321.473C424.798,318.589 418.959,316.561 413.699,315.661C419.1,306.256 423.249,296.704 417.256,291.796C411.852,287.37 401.239,289.559 382.917,297.789C378.534,288.937 375.218,282.49 372.35,280.337C369.165,277.945 364.013,278.431 362.337,283.656C361.399,286.58 361.276,290.8 359.852,294.637C356.493,294.396 351.347,294.419 345.409,296.006C335.297,298.708 330.332,304.533 329.398,305.447C318.402,316.21 308.212,317.018 306.379,317.51C303.634,318.247 301.714,319.983 300.866,322.143C299.995,324.362 300.484,326.477 300.721,327.299C300.94,329.273 301.519,334.942 303.597,340.091C305.364,344.47 307.385,346.503 308.295,347.421C308.616,350.466 308.836,354.888 317.387,358.238C324.125,360.877 343.954,365.679 348.486,370.64C348.567,370.728 348.616,370.78 348.654,370.828C342.571,382.434 304.455,409.853 235.178,426.084C224.672,428.546 218.283,427.9 209.858,426.845C205.259,426.27 201.997,425.893 198.923,428.503C193.021,433.513 192.544,447.87 202.334,454.378C213.203,461.605 233.508,462.318 276.515,452.077C324.286,440.701 353.565,418.354 423.436,423.824C453.228,426.156 478.327,425.425 502.826,416.844C529.936,407.347 554.192,388.876 582.381,364.985ZM361.458,373.423C361.775,371.081 363.314,364.52 351.569,358.302C347.193,355.984 341.78,354.105 336.992,352.608C328.862,350.066 322.779,348.659 320.392,347.276C320.136,345.491 320.124,342.979 316.96,339.949C314.046,337.159 312.829,330.152 312.367,326.91C317.691,325.602 328.072,322.059 338.291,311.397C339.238,310.408 343.962,304.994 355.002,304.199C359.179,303.897 362.208,304.545 362.962,304.548C363.302,304.549 365.286,304.557 366.859,303.012C367.935,301.955 369.486,299.223 370.534,295.106C373.077,299.774 375.574,304.831 376.009,305.643C376.927,307.354 379.113,308.868 382.184,307.994C383.096,307.735 384.434,306.938 389.319,304.729C389.535,304.631 405.63,297.133 410.96,298.066C411.071,298.559 411.132,299.662 410.204,302.426C408.226,308.314 403.397,315.913 403.089,316.729C402.748,317.634 402.892,318.543 402.917,318.699C402.947,318.888 403.172,320.303 403.591,321.012C403.745,321.272 404.674,322.844 406.958,323.095C408.626,323.277 411.114,322.335 423.494,326.493C432.363,329.472 434.752,330.834 439.454,331.285C453.806,332.66 464.026,320.538 468.188,316.331C484.853,299.48 507.41,281.566 518.109,245.261C528.625,209.575 558.598,200.379 610.203,185.996C615.795,184.438 616.188,177.166 616.583,172.993C619.808,138.937 617.581,46.939 529.406,43.628C492.352,42.237 454.807,57.256 447.497,59.423C432.627,63.831 427.487,59.502 430.29,51.646C432.782,44.662 440.985,36.88 450.426,33.811C465.256,28.991 478.543,26.222 481.029,25.704C657.603,-11.089 648.331,177.272 651.037,192.807C651.268,194.135 651.535,194.054 652.257,195.608C657.004,205.835 669.663,250.747 664.028,270.935C655.5,301.486 633.207,388.185 628.23,399.891C621.472,415.787 596.041,447.838 593.702,450.317C591.993,452.128 591.75,451.917 590.058,452.055C587.695,452.249 587.185,452.838 577.122,452.788C570.454,452.756 561.648,452.379 560.326,451.791C557.643,450.597 552.974,443.739 566.99,436.508C586.789,426.293 598.447,412.181 593.862,400.948C587.886,386.305 586.101,374.513 588.69,360.359C588.746,360.051 589.276,358.482 589.306,358.25C589.592,355.998 586.579,354.447 584.555,356.097C579.161,360.497 555.235,381.299 532.994,395.182C498.902,416.463 470.83,420.977 424.152,416.834C352.015,410.433 321.157,433.211 273.132,443.966C249.153,449.336 218.847,454.36 208.328,446.633C205.09,444.254 204.812,438.838 205.935,436.233C211.157,436.722 222.065,439.363 237.054,436.069C309.794,420.085 354.276,390.577 361.109,374.266C361.227,373.986 361.34,373.704 361.458,373.423Z" style="fill:white;"/>
        </g>
    </g>
</svg>
