<?xml version="1.0" encoding="UTF-8" standalone="no"?>
<!DOCTYPE svg PUBLIC "-//W3C//DTD SVG 1.1//EN" "http://www.w3.org/Graphics/SVG/1.1/DTD/svg11.dtd">
<svg xmlns:serif="http://www.serif.com/" style="fill-rule:evenodd;clip-rule:evenodd;stroke-linejoin:round;stroke-miterlimit:2;" height="100%" version="1.1" viewBox="0 0 512 512"
    width="100%" xmlns="http://www.w3.org/2000/svg" xml:space="preserve">
    <g id="Layer4" transform="matrix(-0.790026,0,0,0.874714,591.007,49.7409)">
        <path style="fill:white;" d="M355.13,372.003C349.471,385.838 307.753,414.898 235.704,431.173C220.008,434.718 209.183,431.075 204.357,431.304C199.531,431.534 197.36,445.001 205.249,450.453C213.817,456.374 231.779,458.023 275.327,447.908C322.136,437.036 353.238,414.354 423.794,420.329C494.35,426.305 523.006,411.969 586.495,357.961L585.985,359.517C584.291,368.877 583.149,382.081 591.379,401.627C595.976,412.544 582.473,426.046 565.811,434.665C549.149,443.283 555.756,453.051 560.353,453.912C564.949,454.774 583.91,455.061 588.219,454.2C592.528,453.338 592.528,455.061 597.125,449.316C601.721,443.57 624.991,413.693 630.449,399.042C635.908,384.39 658.763,294.229 665.21,271.202C671.243,249.656 656.305,199.669 652.283,193.636C648.261,187.603 664.833,-33.711 451.167,32.723L450.667,32.887C427.398,40.069 415.276,71.829 451.473,59.188C639.662,-6.528 614.074,174.101 613.787,176.399C613.5,178.697 612.638,183.006 609.478,183.868C558.523,197.765 526.166,207.138 514.962,244.484C503.758,281.831 479.052,299.642 462.965,316.305C446.877,332.967 436.535,326.934 430.789,324.923C425.043,322.912 414.673,318.846 407.491,319.133L407.28,318.022C420.639,295.786 421.905,284.167 380.81,303.718L380.499,303.821C362.688,267.91 369.721,288.59 363.4,299.219L362.986,299.794C354.085,298.349 341.944,300.026 334.379,307.882C324.818,317.811 315.035,321.246 308.454,322.407C305.329,322.959 306.248,325.717 306.432,326.268C306.616,326.82 307.283,338.619 312.683,343.735C316.176,347.045 311.905,349.719 318.75,352.744C326.656,356.238 356.526,361.834 355.203,371.542L355.13,372.003Z"/>
        <path style="fill:white;" d="M581.359,366.94C555.892,388.535 535.91,403.223 515.873,412.541C489.367,424.868 462.722,427.946 423.322,424.877C399.665,423.034 380.579,424.456 363.867,427.565C331.223,433.638 307.448,446.012 276.872,453.334C253.468,458.958 237.205,461.154 225.748,461.179C213.514,461.205 206.074,458.701 201.115,455.333C195.179,451.301 192.818,444.257 193.138,438.217C193.392,433.412 195.508,429.392 197.871,427.389C199.68,425.856 201.791,425.105 203.988,424.984C207.095,424.813 212.625,426.123 220.262,426.264C224.183,426.336 228.76,426.014 233.94,424.802C265.214,417.487 290.585,407.746 309.58,397.986C322.728,391.23 332.741,384.491 339.419,378.581C342.137,376.175 344.261,373.994 345.669,372.052C343.6,371.469 341.086,368.11 337.913,366.882C329.351,363.565 319.375,361.048 315.265,359.18C310.964,357.225 309.098,355.137 308.042,353.293C307.186,351.798 306.718,349.129 306.565,348.111C304.338,345.777 302.607,342.685 301.455,339.417C299.619,334.203 299.312,328.617 299.19,328.237C298.815,327.063 297.972,322.658 300.393,319.542C301.648,317.928 303.573,316.33 307.016,315.758C310.206,315.229 314.321,314.068 318.786,311.541C322.069,309.684 325.532,307.135 328.973,303.636C333.574,298.954 339.419,295.985 345.54,294.445C349.968,293.33 354.519,292.944 358.754,293.13C359.552,290.59 359.833,287.897 360.204,285.958C360.732,283.197 361.641,281.199 362.467,280.239C364.395,277.998 366.772,277.261 369.427,277.641C370.794,277.837 372.963,278.449 375.072,280.921C376.724,282.858 379.391,287.416 383.657,295.987C396.92,290.243 405.587,288.066 410.588,288.28C414.877,288.463 417.65,289.956 419.394,292.038C420.988,293.94 421.9,296.572 421.524,299.972C421.118,303.639 419.014,308.765 415.66,314.835C416.636,315.04 417.62,315.275 418.605,315.535C423.889,316.933 429.203,318.996 432.779,320.285C435.742,321.353 440.214,324.182 446.622,321.981C450.239,320.739 454.337,318.08 459.091,313.254C469.724,302.456 484.147,291.234 495.954,274.17C501.852,265.646 507.092,255.646 510.865,243.482C516.235,226.17 525.866,214.606 539.57,205.871C556.364,195.165 579.464,188.786 608.55,181.094C609.212,180.918 609.47,180.257 609.747,179.645C610.302,178.422 610.541,177.039 610.669,176.081C610.864,174.61 622.454,98.625 578.872,63.617C555.567,44.897 516.587,38.204 451.992,60.401C436.563,65.706 429.326,62.992 427.674,58.044C425.203,50.646 435.469,36.417 450.295,31.904C449.763,32.068 449.441,32.556 449.533,33.057C449.625,33.558 450.105,33.926 450.667,33.926L450.588,33.619C450.302,33.467 450.092,33.207 450.035,32.894C449.95,32.44 450.208,31.996 450.656,31.798C450.677,31.784 450.7,31.773 450.725,31.764L450.767,31.753L450.793,31.742C530.493,7.082 578.274,22.238 607.203,51.19C656.091,100.116 650.823,189.25 653.367,193.046C655.958,196.901 663.098,218.576 666.414,239.483C668.342,251.635 668.961,263.526 666.749,271.553C662.124,288.407 648.915,341.174 640.054,374.075C636.773,386.257 634.081,395.731 632.627,399.703C630.566,405.333 625.961,413.177 620.754,421.079C612.239,434.001 602.129,447.096 599.267,450.714C597.391,453.09 596.147,454.323 595.147,455.016C593.273,456.315 592.127,455.908 588.806,456.592C586.542,457.058 580.4,457.274 574.241,457.231C568.197,457.188 562.141,456.899 559.765,456.468C556.192,455.819 551.425,451.451 552.247,445.473C552.788,441.547 555.82,436.704 564.287,432.26C572.696,427.847 580.268,422.147 584.818,416.194C588.313,411.621 590.047,406.947 588.228,402.709C584.736,394.57 582.843,387.488 581.922,381.302C581.113,375.868 581.058,371.118 581.359,366.94ZM380.904,309.591C381.612,309.551 382.299,309.405 382.94,309.164L382.971,309.158L382.943,309.163C383.172,309.078 383.396,308.981 383.612,308.872L383.792,308.832C394.107,303.805 401.541,300.843 406.712,299.71C407.62,299.512 408.678,299.405 409.465,299.351C409.377,300.082 409.22,301.045 408.958,301.851C407.756,305.55 405.338,310.214 402.214,315.54C401.597,316.567 401.381,317.752 401.6,318.903L401.823,320.012C402.314,322.591 404.852,324.438 407.746,324.322C410.064,324.208 412.789,324.692 415.536,325.365C420.476,326.575 425.449,328.424 428.799,329.562C432.699,330.886 438.404,333.497 446.011,332.143C451.726,331.125 458.761,327.891 466.838,319.355C477.52,308.071 491.985,296.214 503.758,278.485C509.868,269.283 515.279,258.533 519.06,245.487C523.563,229.951 531.942,219.473 544.035,211.483C560.091,200.875 582.399,194.513 610.405,186.642C612.488,186.06 614.062,184.674 615.1,182.851C616.228,180.871 616.712,178.367 616.905,176.717C617.084,175.19 627.408,96.446 581.734,60.673C557.451,41.654 517.249,34.454 450.954,57.976C437.892,62.607 431.626,61.543 430.179,57.35C427.867,50.656 437.625,38.068 451.039,33.87C450.919,33.907 450.794,33.926 450.667,33.926L451.509,33.715L451.473,33.719L451.541,33.704C530.053,9.174 577.364,23.709 605.869,52.277C654.679,101.194 648.676,190.422 651.199,194.225C653.708,198.02 660.442,219.332 663.526,239.847C665.294,251.607 665.874,263.105 663.672,270.85C659.454,285.619 648.336,328.036 639.437,360.381C634.498,378.333 630.248,393.168 628.272,398.38C626.228,403.774 621.682,411.261 616.586,418.812C608.014,431.513 597.856,444.367 594.983,447.918C593.551,449.683 592.671,450.648 591.914,451.159C590.665,452.002 589.831,451.381 587.633,451.807C585.559,452.21 579.944,452.275 574.32,452.171C568.731,452.068 563.132,451.781 560.94,451.357C558.987,450.979 557.008,447.928 558.672,444.426C559.807,442.04 562.486,439.54 567.336,437.069C576.669,432.312 585.038,426.061 590.143,419.559C595.14,413.194 596.999,406.523 594.53,400.545C591.376,392.909 589.686,386.28 588.907,380.494C587.784,372.145 588.582,365.572 589.567,360.276L590.027,358.905C590.499,357.464 589.843,355.915 588.426,355.127C587.008,354.34 585.182,354.508 583.97,355.539C555.107,379.73 533.538,395.816 511.932,405.5C486.697,416.81 461.444,419.183 424.266,415.781C399.43,413.509 379.344,414.762 361.722,417.793C328.789,423.458 304.656,435.534 273.782,442.482C256.044,446.46 242.673,448.487 232.507,449.059C220.385,449.74 213.509,448.474 209.383,445.573C207.443,444.209 206.968,441.826 206.939,439.765C206.93,439.14 207.061,438.386 207.204,437.76C210.846,438.162 216.301,439.291 223.392,439.185C227.591,439.122 232.291,438.672 237.468,437.544C270.428,430.362 297.222,420.496 317.344,410.555C343.825,397.472 358.956,383.583 362.835,375.097C362.91,374.949 362.978,374.797 363.041,374.643L362.835,375.097C361.491,377.833 358.479,379.62 355.13,379.62C355.13,379.62 363.54,372.654 363.54,372.654C363.54,372.654 355.203,379.153 355.203,379.153L363.567,372.472C364.168,367.601 361.783,362.83 356.198,359C347.462,353.008 328.467,348.984 322.236,346.309L322.051,346.222C321.7,344.498 320.734,341.11 318.324,338.878C316.94,337.595 316.188,335.556 315.589,333.639C314.96,331.626 314.537,329.65 314.254,328.035C317.976,326.992 322.228,325.334 326.7,322.68C330.928,320.171 335.397,316.781 339.784,312.128C342.427,309.328 345.859,307.573 349.437,306.603C353.653,305.459 358.061,305.315 361.775,305.883C364.485,306.323 367.223,305.255 368.726,303.171L369.134,302.593C369.239,302.447 369.338,302.297 369.429,302.143C369.996,301.166 370.471,300.116 370.871,299.033C372.051,301.181 373.332,303.585 374.657,306.185C375.688,308.264 377.976,309.603 380.499,309.603L380.904,309.591ZM347.08,371.928C348.466,375.23 355.13,379.62 355.13,379.62C352.372,379.62 349.787,378.401 348.21,376.357C347.229,375.084 346.715,373.591 346.698,372.082L346.893,372.019L347.08,371.928ZM313.71,324.497C313.703,324.417 313.691,324.35 313.674,324.299L313.71,324.497Z"/>
    </g>
    <g id="Layer41" transform="matrix(-0.790026,0,0,0.874714,591.007,49.7409)" serif:id="Layer4">
        <path style="fill:rgb(91,17,66);" d="M355.13,372.003C349.471,385.838 307.753,414.898 235.704,431.173C220.008,434.718 209.183,431.075 204.357,431.304C199.531,431.534 197.36,445.001 205.249,450.453C213.817,456.374 231.779,458.023 275.327,447.908C322.136,437.036 353.238,414.354 423.794,420.329C494.35,426.305 523.006,411.969 586.495,357.961L585.985,359.517C584.291,368.877 583.149,382.081 591.379,401.627C595.976,412.544 582.473,426.046 565.811,434.665C549.149,443.283 555.756,453.051 560.353,453.912C564.949,454.774 583.91,455.061 588.219,454.2C592.528,453.338 592.528,455.061 597.125,449.316C601.721,443.57 624.991,413.693 630.449,399.042C635.908,384.39 658.763,294.229 665.21,271.202C671.243,249.656 656.305,199.669 652.283,193.636C648.261,187.603 664.833,-33.711 451.167,32.723L450.667,32.887C427.398,40.069 415.276,71.829 451.473,59.188C639.662,-6.528 614.074,174.101 613.787,176.399C613.5,178.697 612.638,183.006 609.478,183.868C558.523,197.765 526.166,207.138 514.962,244.484C503.758,281.831 479.052,299.642 462.965,316.305C446.877,332.967 436.535,326.934 430.789,324.923C425.043,322.912 414.673,318.846 407.491,319.133L407.28,318.022C420.639,295.786 421.905,284.167 380.81,303.718L380.499,303.821C362.688,267.91 369.721,288.59 363.4,299.219L362.986,299.794C354.085,298.349 341.944,300.026 334.379,307.882C324.818,317.811 315.035,321.246 308.454,322.407C305.329,322.959 306.248,325.717 306.432,326.268C306.616,326.82 307.283,338.619 312.683,343.735C316.176,347.045 311.905,349.719 318.75,352.744C326.656,356.238 356.526,361.834 355.203,371.542L355.13,372.003Z"/>
    </g>
</svg>
