<?xml version="1.0" encoding="UTF-8" standalone="no"?>
<!DOCTYPE svg PUBLIC "-//W3C//DTD SVG 1.1//EN" "http://www.w3.org/Graphics/SVG/1.1/DTD/svg11.dtd">
<svg xmlns:serif="http://www.serif.com/" style="fill-rule:evenodd;clip-rule:evenodd;stroke-linejoin:round;stroke-miterlimit:2;" height="100%" version="1.1" viewBox="0 0 512 512"
    width="100%" xmlns="http://www.w3.org/2000/svg" xml:space="preserve">
    <g id="Layer4" transform="matrix(-0.882535,0,0,0.977139,619.135,12.0832)">
        <path style="fill:white;" d="M355.13,372.003C349.471,385.838 307.753,414.898 235.704,431.173C220.008,434.718 209.183,431.075 204.357,431.304C199.531,431.534 197.36,445.001 205.249,450.453C213.817,456.374 231.779,458.023 275.327,447.908C322.136,437.036 353.238,414.354 423.794,420.329C494.35,426.305 523.006,411.969 586.495,357.961L585.985,359.517C584.291,368.877 583.149,382.081 591.379,401.627C595.976,412.544 582.473,426.046 565.811,434.665C549.149,443.283 555.756,453.051 560.353,453.912C564.949,454.774 583.91,455.061 588.219,454.2C592.528,453.338 592.528,455.061 597.125,449.316C601.721,443.57 624.991,413.693 630.449,399.042C635.908,384.39 658.763,294.229 665.21,271.202C671.243,249.656 656.305,199.669 652.283,193.636C648.261,187.603 664.833,-33.711 451.167,32.723L450.667,32.887C427.398,40.069 415.276,71.829 451.473,59.188C639.662,-6.528 614.074,174.101 613.787,176.399C613.5,178.697 612.638,183.006 609.478,183.868C558.523,197.765 526.166,207.138 514.962,244.484C503.758,281.831 479.052,299.642 462.965,316.305C446.877,332.967 436.535,326.934 430.789,324.923C425.043,322.912 414.673,318.846 407.491,319.133L407.28,318.022C420.639,295.786 421.905,284.167 380.81,303.718L380.499,303.821C362.688,267.91 369.721,288.59 363.4,299.219L362.986,299.794C354.085,298.349 341.944,300.026 334.379,307.882C324.818,317.811 315.035,321.246 308.454,322.407C305.329,322.959 306.248,325.717 306.432,326.268C306.616,326.82 307.283,338.619 312.683,343.735C316.176,347.045 311.905,349.719 318.75,352.744C326.656,356.238 356.526,361.834 355.203,371.542L355.13,372.003Z"/>
        <path style="fill:white;" d="M581.805,366.072C556.016,387.95 535.869,402.794 515.666,412.172C489.227,424.445 462.655,427.488 423.371,424.4C399.652,422.536 380.514,423.948 363.754,427.053C331.095,433.105 307.301,445.462 276.71,452.765C253.379,458.352 237.17,460.536 225.752,460.552C213.733,460.568 206.417,458.134 201.549,454.821C195.811,450.917 193.548,444.096 193.863,438.254C194.111,433.653 196.104,429.792 198.368,427.876C200.043,426.459 201.994,425.757 204.027,425.647C207.469,425.459 213.957,427.19 223.054,426.924C226.362,426.827 230.06,426.417 234.125,425.47C265.487,418.16 290.934,408.415 309.986,398.645C323.22,391.859 333.298,385.087 340.022,379.146C343.319,376.233 345.756,373.63 347.15,371.377C346.595,370.956 346.08,369.92 345.262,369.433C342.885,368.017 339.882,366.752 336.74,365.598C328.536,362.585 319.5,360.259 315.63,358.505C311.552,356.658 309.774,354.689 308.771,352.943C308.179,351.914 307.812,350.901 307.608,349.872C307.492,349.29 307.382,348.241 307.338,347.787C305.096,345.509 303.37,342.435 302.222,339.188C300.382,333.986 300.071,328.41 299.949,328.031C299.599,326.94 298.796,322.844 301.044,319.945C302.201,318.452 303.987,316.987 307.167,316.455C310.429,315.91 314.636,314.714 319.201,312.125C322.534,310.234 326.048,307.639 329.54,304.082C334.036,299.496 339.757,296.595 345.745,295.082C350.285,293.935 354.959,293.57 359.273,293.812C360.196,291.096 360.5,288.149 360.897,286.06C361.395,283.437 362.239,281.534 363.023,280.621C364.767,278.591 366.92,277.922 369.324,278.265C370.587,278.445 372.575,279.029 374.525,281.31C376.202,283.271 378.922,287.948 383.323,296.799C396.783,290.9 405.538,288.645 410.564,288.855C414.616,289.024 417.244,290.421 418.894,292.387C420.409,294.191 421.252,296.694 420.899,299.922C420.489,303.667 418.277,308.945 414.773,315.207C415.984,315.442 417.214,315.726 418.444,316.05C423.71,317.438 429.007,319.49 432.571,320.771C435.621,321.867 440.234,324.722 446.826,322.45C450.501,321.184 454.67,318.484 459.497,313.574C470.133,302.751 484.557,291.495 496.363,274.396C502.273,265.837 507.52,255.797 511.295,243.587C516.618,226.368 526.186,214.862 539.804,206.165C556.559,195.464 579.618,189.087 608.648,181.385C609.404,181.183 609.739,180.456 610.056,179.757C610.622,178.507 610.866,177.093 610.996,176.114C611.19,174.64 622.712,98.511 579.022,63.463C555.666,44.727 516.622,38.009 451.938,60.273C436.635,65.544 429.447,62.915 427.805,58.008C425.342,50.646 435.582,36.504 450.334,32.007L450.281,32.029L450.361,31.998C450.454,31.968 450.669,31.898 450.766,31.867L450.807,31.856L450.833,31.845C530.47,7.192 578.227,22.315 607.134,51.247C656.017,100.173 650.711,189.312 653.253,193.108C655.84,196.96 662.959,218.615 666.263,239.503C668.182,251.634 668.8,263.504 666.587,271.516C661.954,288.368 648.716,341.129 639.835,374.026C636.549,386.198 633.854,395.665 632.398,399.634C630.338,405.251 625.737,413.076 620.535,420.96C612.018,433.871 601.905,446.953 599.043,450.567C597.189,452.912 595.965,454.13 594.978,454.813C593.136,456.088 592.006,455.671 588.744,456.341C586.49,456.804 580.376,457.012 574.245,456.966C568.225,456.92 562.193,456.631 559.827,456.2C556.358,455.568 551.752,451.313 552.555,445.509C553.09,441.641 556.101,436.886 564.447,432.512C572.904,428.08 580.518,422.352 585.097,416.37C588.669,411.703 590.412,406.924 588.559,402.596C585.084,394.483 583.201,387.425 582.288,381.259C581.429,375.461 581.431,370.444 581.805,366.072ZM380.862,308.986C381.503,308.95 382.125,308.817 382.705,308.596L382.742,308.589L382.709,308.594C382.91,308.519 383.107,308.433 383.297,308.336L383.48,308.296C393.869,303.245 401.361,300.28 406.567,299.145C407.876,298.86 409.316,298.767 410.135,298.738C410.07,299.542 409.913,300.915 409.554,302.015C408.339,305.74 405.899,310.437 402.745,315.8C402.193,316.719 401.999,317.78 402.195,318.811L402.417,319.92C402.857,322.228 405.128,323.882 407.719,323.778C410.093,323.664 412.885,324.158 415.696,324.849C420.655,326.069 425.646,327.93 429.008,329.075C433.569,330.63 440.581,333.997 450.303,330.465C454.968,328.771 460.386,325.411 466.432,319.036C477.111,307.777 491.574,295.953 503.349,278.259C509.448,269.093 514.849,258.381 518.63,245.382C523.177,229.753 531.625,219.219 543.801,211.189C559.895,200.575 582.246,194.214 610.308,186.351C612.305,185.794 613.808,184.458 614.805,182.711C615.915,180.766 616.387,178.305 616.579,176.684C616.758,175.159 627.147,96.56 581.584,60.828C557.352,41.824 517.215,34.651 451.009,58.103C437.825,62.77 431.506,61.618 430.047,57.387C427.727,50.656 437.512,37.982 451,33.767C450.893,33.8 450.781,33.817 450.667,33.817L451.468,33.612L451.432,33.617L451.502,33.601C530.076,9.064 577.412,23.631 605.939,52.22C654.753,101.137 648.789,190.361 651.313,194.163C653.826,197.962 660.581,219.293 663.678,239.828C665.454,251.608 666.036,263.127 663.833,270.887C659.624,285.658 648.528,328.079 639.648,360.427C634.717,378.39 630.474,393.234 628.5,398.449C626.455,403.856 621.907,411.362 616.805,418.93C608.235,431.643 598.08,444.51 595.207,448.064C593.752,449.862 592.853,450.841 592.083,451.361C590.802,452.228 589.95,451.619 587.694,452.058C585.611,452.464 579.968,452.537 574.316,452.436C568.703,452.336 563.08,452.049 560.879,451.625C558.812,451.226 556.626,448.023 558.385,444.316C559.537,441.889 562.246,439.333 567.176,436.817C576.461,432.077 584.788,425.856 589.864,419.382C594.781,413.111 596.636,406.545 594.2,400.658C591.028,392.996 589.327,386.343 588.541,380.536C587.404,372.134 588.204,365.521 589.192,360.195L589.657,358.806C590.08,357.516 589.492,356.13 588.223,355.424C586.954,354.719 585.319,354.87 584.235,355.793C555.353,380.037 533.765,396.157 512.138,405.869C486.836,417.231 461.511,419.644 424.216,416.258C399.443,414.009 379.409,415.27 361.835,418.305C328.917,423.991 304.802,436.083 273.944,443.051C256.159,447.054 242.75,449.097 232.555,449.679C220.178,450.384 213.166,449.044 208.95,446.085C206.834,444.6 206.248,442.025 206.214,439.779C206.201,438.906 206.455,437.819 206.677,437.046C210.317,437.389 215.951,438.624 223.374,438.507C227.523,438.442 232.168,437.995 237.283,436.876C270.154,429.686 296.875,419.829 316.937,409.896C343.345,396.822 358.402,383.01 362.099,374.625C362.139,374.539 362.176,374.453 362.212,374.366L362.099,374.625C360.932,377.157 358.188,378.821 355.13,378.821C355.13,378.821 362.665,372.542 362.665,372.542C362.665,372.542 355.203,378.355 355.203,378.355L362.69,372.375C363.266,367.758 360.951,363.259 355.662,359.622C346.977,353.65 328.068,349.652 321.871,346.983C321.694,346.907 321.493,346.809 321.317,346.719C321.046,345.182 320.179,341.658 317.733,339.387C316.264,338.023 315.446,335.865 314.812,333.828C314.094,331.52 313.647,329.261 313.366,327.542C317.184,326.529 321.611,324.864 326.285,322.096C330.464,319.622 334.879,316.275 339.217,311.683C341.96,308.782 345.523,306.968 349.233,305.966C353.562,304.796 358.09,304.658 361.902,305.245C364.328,305.639 366.779,304.682 368.124,302.817L368.533,302.239C368.627,302.109 368.715,301.974 368.797,301.837C369.603,300.452 370.219,298.919 370.702,297.353C372.089,299.846 373.648,302.745 375.269,305.937C376.192,307.799 378.241,308.997 380.499,308.997L380.862,308.986ZM347.8,371.535C348.669,374.531 355.13,378.821 355.13,378.821C352.661,378.821 350.347,377.73 348.936,375.9C347.946,374.618 347.488,373.085 347.599,371.563C347.665,371.566 347.732,371.557 347.8,371.535ZM450.252,32.04C449.271,32.478 450.667,33.817 450.667,33.817C450.164,33.817 449.734,33.488 449.652,33.039C449.574,32.618 449.824,32.207 450.252,32.04Z"/>
    </g>
    <g id="Layer41" transform="matrix(-0.882535,0,0,0.977139,619.135,12.0832)" serif:id="Layer4">
        <path style="fill:rgb(0,47,101);" d="M355.13,372.003C349.471,385.838 307.753,414.898 235.704,431.173C220.008,434.718 209.183,431.075 204.357,431.304C199.531,431.534 197.36,445.001 205.249,450.453C213.817,456.374 231.779,458.023 275.327,447.908C322.136,437.036 353.238,414.354 423.794,420.329C494.35,426.305 523.006,411.969 586.495,357.961L585.985,359.517C584.291,368.877 583.149,382.081 591.379,401.627C595.976,412.544 582.473,426.046 565.811,434.665C549.149,443.283 555.756,453.051 560.353,453.912C564.949,454.774 583.91,455.061 588.219,454.2C592.528,453.338 592.528,455.061 597.125,449.316C601.721,443.57 624.991,413.693 630.449,399.042C635.908,384.39 658.763,294.229 665.21,271.202C671.243,249.656 656.305,199.669 652.283,193.636C648.261,187.603 664.833,-33.711 451.167,32.723L450.667,32.887C427.398,40.069 415.276,71.829 451.473,59.188C639.662,-6.528 614.074,174.101 613.787,176.399C613.5,178.697 612.638,183.006 609.478,183.868C558.523,197.765 526.166,207.138 514.962,244.484C503.758,281.831 479.052,299.642 462.965,316.305C446.877,332.967 436.535,326.934 430.789,324.923C425.043,322.912 414.673,318.846 407.491,319.133L407.28,318.022C420.639,295.786 421.905,284.167 380.81,303.718L380.499,303.821C362.688,267.91 369.721,288.59 363.4,299.219L362.986,299.794C354.085,298.349 341.944,300.026 334.379,307.882C324.818,317.811 315.035,321.246 308.454,322.407C305.329,322.959 306.248,325.717 306.432,326.268C306.616,326.82 307.283,338.619 312.683,343.735C316.176,347.045 311.905,349.719 318.75,352.744C326.656,356.238 356.526,361.834 355.203,371.542L355.13,372.003Z"/>
    </g>
</svg>
